<svg version="1.1" id="Layer_1" xmlns="http://www.w3.org/2000/svg" x="0" y="0" width="800" height="600" style="enable-background:new 0 0 800 600" xml:space="preserve"><style>.st1{fill:#fff}.st2{fill:#007db9}.st3{fill:#dcdcdc}.st4{fill:#00bcf1}.st5{fill:#333}.st6{fill:#f36321}.st8{fill:#a4bf34}</style><path d="M737.9 303.6c-14.5-13-32.7-23.7-53.2-35C586.8 214.7 499 6.5 361.5 73.5c-61.5 30-92.2 98-139.3 144.5-55.7 55-185.3 110.2-187.4 201.3-1.1 47.9 55.8 128 107.5 128.1l523.6.3c22.1-9.8 44.6-19.8 62.5-36 33.8-30.6 49.2-82 46.6-127.4-2.2-37.8-15.8-61.6-37.1-80.7z" style="opacity:.25;fill:#00bcf1"/><path className="st1" d="M719.8 129.7H361c-8.5 0-15.3 6.9-15.3 15.3v402.6h389.5V145c-.1-8.4-6.9-15.3-15.4-15.3z"/><path className="st2" d="M345.6 153.4v24.5h389.5v-24.5c0-13.1-10.6-23.7-23.7-23.7H369.3c-13.1 0-23.7 10.6-23.7 23.7z"/><path className="st3" d="M698.4 242.9H542.9c-1.4 0-2.5-1.1-2.5-2.5v-8.1c0-1.4 1.1-2.5 2.5-2.5h155.5c1.4 0 2.5 1.1 2.5 2.5v8.1c0 1.3-1.1 2.5-2.5 2.5zM698.4 267.2H542.9c-1.4 0-2.5-1.1-2.5-2.5v-8.1c0-1.4 1.1-2.5 2.5-2.5h155.5c1.4 0 2.5 1.1 2.5 2.5v8.1c0 1.4-1.1 2.5-2.5 2.5zM631 291.6h-88.2c-1.4 0-2.5-1.1-2.5-2.5V281c0-1.4 1.1-2.5 2.5-2.5H631c1.4 0 2.5 1.1 2.5 2.5v8.1c0 1.4-1.1 2.5-2.5 2.5z"/><path className="st4" d="M621.5 335.2h-69c-6.7 0-12.1-5.4-12.1-12.1 0-6.7 5.4-12.1 12.1-12.1h69c6.7 0 12.1 5.4 12.1 12.1-.1 6.7-5.5 12.1-12.1 12.1z"/><path className="st3" d="M698.4 399.1H542.9c-1.4 0-2.5-1.1-2.5-2.5v-8.1c0-1.4 1.1-2.5 2.5-2.5h155.5c1.4 0 2.5 1.1 2.5 2.5v8.1c0 1.4-1.1 2.5-2.5 2.5zM698.4 423.5H542.9c-1.4 0-2.5-1.1-2.5-2.5v-8.1c0-1.4 1.1-2.5 2.5-2.5h155.5c1.4 0 2.5 1.1 2.5 2.5v8.1c0 1.3-1.1 2.5-2.5 2.5zM698.4 451.1H542.9c-1.4 0-2.5-1.1-2.5-2.5v-8.1c0-1.4 1.1-2.5 2.5-2.5h155.5c1.4 0 2.5 1.1 2.5 2.5v8.1c0 1.4-1.1 2.5-2.5 2.5z"/><path className="st4" d="M621.5 491.4h-69c-6.7 0-12.1-5.4-12.1-12.1 0-6.7 5.4-12.1 12.1-12.1h69c6.7 0 12.1 5.4 12.1 12.1-.1 6.7-5.5 12.1-12.1 12.1z"/><path className="st3" d="M499.5 343.9h-87.7c-11.7 0-21.2-9.5-21.2-21.2V235c0-11.7 9.5-21.2 21.2-21.2h87.7c11.7 0 21.2 9.5 21.2 21.2v87.7c0 11.7-9.5 21.2-21.2 21.2zM499.5 504.6h-87.7c-11.7 0-21.2-9.5-21.2-21.2v-87.7c0-11.7 9.5-21.2 21.2-21.2h87.7c11.7 0 21.2 9.5 21.2 21.2v87.7c0 11.7-9.5 21.2-21.2 21.2z"/><path className="st5" d="M735.1 547.7c-.9 0-1.5-.7-1.5-1.5V151.3c0-11-9-20-20-20H367.2c-11 0-20 9-20 20v114.8c0 .9-.7 1.5-1.5 1.5-.9 0-1.5-.7-1.5-1.5V151.3c0-12.7 10.4-23.1 23.1-23.1h346.4c12.7 0 23.1 10.4 23.1 23.1v394.9c-.1.8-.8 1.5-1.7 1.5z"/><path className="st5" d="M613.1 179.4H345.6c-.9 0-1.5-.7-1.5-1.5s.7-1.5 1.5-1.5h267.5c.9 0 1.5.7 1.5 1.5s-.6 1.5-1.5 1.5z"/><path className="st1" d="M383.9 155.9c0 2.9-2.4 5.3-5.3 5.3s-5.3-2.4-5.3-5.3 2.4-5.3 5.3-5.3 5.3 2.4 5.3 5.3zM402.1 155.9c0 2.9-2.4 5.3-5.3 5.3s-5.3-2.4-5.3-5.3 2.4-5.3 5.3-5.3 5.3 2.4 5.3 5.3zM420.4 155.9c0 2.9-2.4 5.3-5.3 5.3s-5.3-2.4-5.3-5.3 2.4-5.3 5.3-5.3 5.3 2.4 5.3 5.3z"/><g id="XMLID_367_"><g id="XMLID_368_"><path id="XMLID_369_" className="st6" d="m202 202.6-3.7-20.1c3.2-7.2 4.9-15.2 4.6-23.6-1.1-27.6-23.8-49.8-51.4-50.4-30.2-.7-54.7 24-53.8 54.2.8 27.1 22.4 49.4 49.4 51 11.5.7 22.2-2.4 31.1-8l17.6 3.2c3.7.6 6.9-2.6 6.2-6.3z"/></g></g><ellipse cx="283.5" cy="294.8" rx="43.1" ry="9.3" style="fill:#231f20"/><path className="st1" d="M252.6 231.8c.8 6.8-4 13.1-10.9 13.9-6.8.8-13.1-4-13.9-10.9-.8-6.8 4-13.1 10.9-13.9 6.9-.8 13.1 4.1 13.9 10.9z"/><path className="st5" d="M240.2 247.4c-3.1 0-6.1-1-8.6-3-3-2.3-4.8-5.6-5.3-9.3-.5-3.7.6-7.4 2.9-10.3 2.3-3 5.6-4.8 9.3-5.3 3.7-.5 7.4.6 10.3 2.9 3 2.3 4.8 5.6 5.3 9.3.5 3.7-.6 7.4-2.9 10.3-2.3 3-5.6 4.8-9.3 5.3-.5.1-1.1.1-1.7.1zm.1-25c-.5 0-.9 0-1.4.1-2.9.4-5.5 1.8-7.3 4.1-1.8 2.3-2.6 5.2-2.2 8.1.4 2.9 1.8 5.5 4.1 7.3 2.3 1.8 5.2 2.6 8.1 2.2 2.9-.4 5.5-1.8 7.3-4.1 1.8-2.3 2.6-5.2 2.2-8.1-.4-2.9-1.8-5.5-4.1-7.3-2-1.5-4.3-2.3-6.7-2.3z"/><path className="st1" d="M245.7 247.1v70.6c0 3.9 1.8 7.4 4.8 9.5l49.7 33.5 14.2-29.8c2.1-4.4 3.2-9.4 3.2-14.4v-28l-71.9-41.4z"/><path className="st5" d="m300.9 363-51.2-34.5c-3.4-2.3-5.5-6.3-5.5-10.7v-70.6c0-.9.7-1.5 1.5-1.5s1.5.7 1.5 1.5v70.6c0 3.3 1.6 6.5 4.1 8.2l48.2 32.5 13.4-28.2c2-4.2 3.1-8.9 3.1-13.7v-28c0-.9.7-1.5 1.5-1.5.9 0 1.5.7 1.5 1.5v28c0 5.2-1.2 10.4-3.4 15L300.9 363z"/><path className="st1" d="M312.3 294.3c-31.2 3.9-60.3-16.7-67-47.5l-13.8-63.1s103.9-40.9 113.2-14c7.5 21.5 6.2 59.3 3.9 86.8-1.7 19.6-16.8 35.4-36.3 37.8z"/><path className="st5" d="M304.6 296.3c-29.7 0-55.3-20.8-61.2-51.1-.2-.8.4-1.7 1.2-1.8.8-.2 1.7.4 1.8 1.2 5.7 28.8 30 48.6 58.2 48.6 2.5 0 5-.2 7.5-.5 18.7-2.3 33.3-17.6 34.9-36.3 1.3-15.5 1.8-37.9 1.1-54.5 0-.9.6-1.6 1.5-1.6s1.6.6 1.6 1.5c.7 16.7.2 39.2-1.1 54.8-1.7 20.2-17.5 36.7-37.6 39.2-2.7.4-5.3.5-7.9.5z"/><path className="st5" d="M276.5 199.4c-2.6-1.3-5.1-2.9-7.9-4-.6-.3-1.4-.5-2-.1-.3.2-.5.5-.6.9-.7 2-.7 4.5-1.2 6.6-2.4 11.2-6.9 21.9-14.2 30.8-1.1 1.4-2.6 2.8-4.4 2.5-1.1-.2-1.9-1.1-2.7-1.9-11.8-12.9-25-35.8-19-53.8 1.7-5 5.6-9.5 10.7-10.7 5.1-1.2 11.2 1.5 12.7 6.6-3.7-12.2 14.8-25.8 25.1-27.1 5.5-.7 11.5-.5 16.2 2.6-1.7-1.3 11.5-14.7 13.2-16.1 8.4-6.7 17.8-11.2 28.8-11.6 14.2-.5 28.6 6.2 36.7 17.9 5.6 8 7.9 18 7.2 27.7-.8 11.4-4.5 20.9-13.2 28.3-14.9 12.7-39.1 9.9-54.9.7-.5-.3-6-4-5.8-4.1-3.7 4.4-9.7 7.1-15.6 7.3-3.4 0-6.3-1.1-9.1-2.5z"/><path className="st4" d="M513.8 484.4c-6.7-6.5-13.2-13-20.4-19-6.7-5.7-13.7-11-20.6-16.6-10.2-8.3-20-17.2-27.8-27.7l-2.2 8.9-5.1 13.5-50.7-86.9c-12.7-22.3-36.3-36-62-35.9v-25h-.2c-2 4.7-19.8 8.4-41.4 8.4-21.3 0-38.9-3.6-41.3-8.1h-.3v25c-16.6 0-32.7 5.6-45.8 15.7-43.2 33.5-135 114-106.2 175.8 9.7 20.9 31 34.1 54.1 34.6l343.8.6s16.6-17.2 31.1-58.4c-1.7-1.6-3.4-3.2-5-4.9z"/><path className="st5" d="m168.9 549.2-25.1-.6c-23.9-.5-45.7-14.5-55.5-35.5-29.3-63.1 65-145.2 106.8-177.6 12.9-10 28.9-15.6 45.2-16v-25.1h2.8l.4.8c1.9 3.5 17.7 7.3 40 7.3 24 0 38.7-4.3 40-7.4l.4-.9h2.8v25c25.5.5 49.1 14.4 61.8 36.7l51.7 89.9c.4.7.2 1.7-.6 2.1-.7.4-1.7.2-2.1-.6l-51.7-89.9c-12.3-21.7-35.5-35.1-60.4-35.1h-1.8v-23.1c-6.9 4.4-24.4 6.4-40.1 6.4-15.5 0-33.2-2-40.1-6.4v23.4h-1.5c-16.1 0-32.1 5.5-44.8 15.4-41.4 31.8-134.3 112.7-105.9 173.8 9.3 20 30 33.2 52.7 33.7l25.1.6c.9 0 1.5.7 1.5 1.6 0 .8-.7 1.5-1.6 1.5z"/><path className="st5" d="M283.8 333.8c-24.2 0-37.6-9.2-38.2-9.7-.7-.5-.9-1.5-.4-2.2.5-.7 1.5-.9 2.2-.4.1.1 15 10.3 41.2 9 .8 0 1.6.6 1.6 1.5s-.6 1.6-1.5 1.6c-1.6.1-3.3.2-4.9.2zM262.7 341.2h-.1c-14.7-1.4-24.8-10.3-25.2-10.7-.6-.6-.7-1.5-.1-2.2.6-.6 1.5-.7 2.2-.1.1.1 9.8 8.6 23.4 9.9.9.1 1.5.8 1.4 1.7-.2.8-.8 1.4-1.6 1.4zM211.8 461c-.9 0-1.6-.8-1.5-1.6.4-10.8-5.7-14.9-6-15.1-.7-.5-.9-1.4-.5-2.1s1.4-.9 2.1-.5c.3.2 7.9 5.2 7.4 17.8 0 .9-.6 1.5-1.5 1.5zM196.5 549.2c-22 0-41.7-.4-52.7-.6-.9 0-1.5-.7-1.5-1.6 0-.9.7-1.5 1.6-1.5 67.1 1.5 144.5.5 160.3-6.7 20.9-9.6 15-47 13.6-54.4-.7-3.5-3.6-6.1-7.2-6.3l-117.4-11.5c-.9-.1-1.5-.8-1.4-1.7.1-.9.8-1.5 1.7-1.4L310.9 475c4.9.3 9.1 3.9 10 8.8 1.2 6.4 2.9 18.9 1.2 31.1-1.9 13.5-7.5 22.5-16.6 26.7-13.6 6.2-65.8 7.6-109 7.6z"/><path className="st4" d="m345 489.5-8.6-179.1c-.5-10.6 5.7-20.4 15.6-24.4l15.8-6.4c14.3-5.8 30.4 2.6 33.8 17.7l38.8 172.4-37.1 73.8-55.3-32.9-3-21.1z"/><path className="st5" d="m403.9 545.6-57.3-34-3.1-22-8.6-179.1c-.5-11.2 6.1-21.6 16.5-25.9l15.8-6.4c7.2-2.9 15.4-2.5 22.3 1.1s11.9 10.1 13.6 17.7l39 172.9-.2.5-38 75.2zm-54.4-35.9 53.2 31.6 36.1-71.8-38.7-171.8c-1.5-6.7-5.9-12.4-12-15.6-6.1-3.2-13.3-3.5-19.7-.9l-15.8 6.4c-9.2 3.7-15.1 12.9-14.6 22.9l8.6 179 2.9 20.2z"/><path className="st1" d="m387.9 278.1-7.1-40.1-29.1-41.9c-1.5-2.1-4.3-2.7-6.5-1.3-2.1 1.4-2.8 4.1-1.6 6.3l15.4 27.7c.3.5-.4.9-.7.5l-24-27.7c-1.7-1.9-4.6-2.1-6.5-.4-1.8 1.6-2 4.3-.5 6.2l24.6 31.6c.2.3-.2.7-.5.5l-13.7-11.8c-3.1-2.6-7.9-.7-8.3 3.3-.1 1.3.2 2.6 1 3.6l10 12.9 4.2 36.6c1.4 12 12.3 20.6 24.3 19.2 12.4-1.5 21-12.9 19-25.2z"/><path className="st5" d="M366.3 305c-5.2 0-10.3-1.7-14.4-5-4.9-3.9-8-9.5-8.8-15.7l-4.1-36.2-9.7-12.5c-1-1.3-1.5-3-1.4-4.7.2-2.4 1.8-4.5 4.1-5.5 2.3-.9 4.9-.5 6.7 1.1l4.5 3.8-17.1-21.9c-2-2.5-1.7-6.2.7-8.3a6.1 6.1 0 0 1 4.5-1.6c1.7.1 3.2.8 4.3 2.1l17.1 19.7-10.3-18.5c-1.6-2.9-.7-6.5 2.1-8.3 2.9-1.9 6.6-1.1 8.6 1.7l29.3 42.1 7.1 40.4c1.1 6.4-.5 12.7-4.4 17.8s-9.5 8.4-15.9 9.2c-1 .3-1.9.3-2.9.3zm-31.8-76.9c-.4 0-.9.1-1.3.3-1.2.5-2 1.6-2.2 2.9-.1.9.2 1.8.7 2.5L342 247l4.2 37.1c.6 5.4 3.3 10.2 7.6 13.6 4.3 3.4 9.6 4.9 15 4.2 5.5-.7 10.4-3.5 13.8-8 3.3-4.5 4.7-10 3.8-15.5l-7-39.7-28.9-41.7c-1-1.4-2.9-1.8-4.4-.9-1.4.9-1.9 2.8-1.1 4.2l15.4 27.7c.5.9.2 2-.6 2.6-.8.6-2 .4-2.6-.3l-24-27.7c-.5-.6-1.3-1-2.1-1s-1.6.2-2.2.8c-1.2 1.1-1.3 2.9-.4 4.1l24.6 31.6c.6.8.5 1.8-.2 2.5s-1.8.7-2.5.1l-13.7-11.8c-.6-.5-1.4-.8-2.2-.8zM277 509.6s-.1 0 0 0c-.9 0-1.6-.8-1.5-1.6.4-9.4 6-17.8 14.5-21.8.8-.4 1.7 0 2.1.7.4.8 0 1.7-.7 2.1-7.5 3.5-12.4 10.9-12.7 19.1-.2.8-.9 1.5-1.7 1.5z"/><path className="st8" d="M573.9 54.6c-6.6 0-11.9 5.3-11.9 11.9s5.3 11.9 11.9 11.9c6.6 0 11.9-5.3 11.9-11.9s-5.3-11.9-11.9-11.9zm0 18.7c-3.8 0-6.8-3-6.8-6.8s3-6.8 6.8-6.8 6.8 3 6.8 6.8c0 3.7-3 6.8-6.8 6.8zM63.5 199.5c-5 0-9 4-9 9s4 9 9 9 9-4 9-9c0-4.9-4-9-9-9zm0 14.2c-2.9 0-5.2-2.3-5.2-5.2s2.3-5.2 5.2-5.2c2.9 0 5.2 2.3 5.2 5.2s-2.4 5.2-5.2 5.2zM761.1 323.6c-5 0-9 4-9 9s4 9 9 9 9-4 9-9c0-4.9-4-9-9-9zm0 14.2c-2.9 0-5.2-2.3-5.2-5.2 0-2.9 2.3-5.2 5.2-5.2 2.9 0 5.2 2.3 5.2 5.2-.1 2.9-2.4 5.2-5.2 5.2z"/><path className="st2" d="M71.8 277.6c-6.9 0-12.4 5.6-12.4 12.4 0 6.9 5.6 12.4 12.4 12.4 6.9 0 12.4-5.6 12.4-12.4 0-6.9-5.6-12.4-12.4-12.4zm0 19.5c-3.9 0-7.1-3.2-7.1-7.1 0-3.9 3.2-7.1 7.1-7.1 3.9 0 7.1 3.2 7.1 7.1 0 3.9-3.2 7.1-7.1 7.1zM535.7 96.7c0 2.1-1.7 3.8-3.8 3.8s-3.8-1.7-3.8-3.8c0-2.1 1.7-3.8 3.8-3.8s3.8 1.7 3.8 3.8z"/><circle className="st4" cx="113.7" cy="237.8" r="3.8"/><circle className="st4" cx="754.2" cy="391.4" r="3.8"/><path className="st4" d="m626.7 106-3.5-1.9 1.9-3.5c.5-.9.2-2.1-.8-2.6-.9-.5-2.1-.2-2.6.8l-1.9 3.5-3.5-1.9c-.9-.5-2.1-.2-2.6.8-.5.9-.2 2.1.8 2.6l3.5 1.9-1.9 3.5c-.5.9-.2 2.1.8 2.6.9.5 2.1.2 2.6-.8l1.9-3.5 3.5 1.9c.9.5 2.1.2 2.6-.8s.1-2.1-.8-2.6zM231.1 114.8l-4.7-2.6 2.6-4.7c.7-1.2.2-2.8-1-3.4-1.2-.7-2.8-.2-3.4 1l-2.6 4.7-4.7-2.6c-1.2-.7-2.8-.2-3.4 1-.7 1.2-.2 2.8 1 3.4l4.7 2.6-2.6 4.8c-.7 1.2-.2 2.8 1 3.4 1.2.7 2.8.2 3.4-1l2.6-4.7 4.7 2.6c1.2.7 2.8.2 3.4-1 .7-1.3.3-2.8-1-3.5z"/><path className="st1" d="M443.4 304.6c0 1.7-1.4 3.1-3.1 3.1-1.7 0-3.1-1.4-3.1-3.1 0-1.7 1.4-3.1 3.1-3.1 1.7.1 3.1 1.4 3.1 3.1z"/><path className="st6" d="M447.1 214.1a6.7 6.7 0 1 1-6.7-6.7c3.7-.1 6.7 2.9 6.7 6.7z"/><circle id="XMLID_00000012440016637503835060000002499153668901468838_" transform="rotate(-76.609 617.698 182.2)" className="st6" cx="617.7" cy="182.2" r="28.7"/><path className="st1" d="m632.6 190.9-8.8-8.9 8.8-8.8-5.8-5.8-8.8 8.8-8.9-8.8-5.8 5.8 8.9 8.8-8.9 8.9 5.8 5.8 8.9-8.9 8.8 8.9z"/><path className="st5" d="M313 251.9h-.2l-6.1-.6c-.9-.1-1.5-.8-1.4-1.7.1-.9.8-1.5 1.7-1.4l4.9.5-4.6-18.5c-.2-.8.3-1.7 1.1-1.9.8-.2 1.7.3 1.9 1.1l4.9 19.6c.2.7 0 1.5-.5 2-.4.6-1.1.9-1.7.9zm-.8-2.1zM305.1 269.2c-.7 0-1.4-.5-1.5-1.2 0 0-.5-2.4-2.4-3.4-1.2-.7-2.8-.6-4.7.1-.8.3-1.7-.1-2-.9-.3-.8.1-1.7.9-2 2.8-1 5.3-1 7.3.2 3.1 1.7 3.9 5.3 3.9 5.4.2.8-.4 1.7-1.2 1.8-.1-.1-.2 0-.3 0z"/><path className="st1" d="m311.5 491.2 40.6 2.2 45.1 23.8c2.3 1.2 3.2 4 2 6.3-1.1 2.2-3.7 3.3-6.1 2.3l-29.3-12c-.5-.2-.9.5-.4.8l30.4 20.5c2.1 1.4 2.7 4.3 1.2 6.4-1.4 2-4.1 2.5-6.1 1.3l-34.3-20.6c-.3-.2-.7.3-.4.5l13.3 12.2c3 2.7 1.7 7.7-2.3 8.6-1.3.3-2.6.1-3.7-.6l-14-8.4-36.9.3c-12.1.1-22-9.7-22-21.8.1-12.4 10.4-22.4 22.9-21.8z"/><path className="st5" d="M364.1 545.2c-1.2 0-2.3-.3-3.4-.9l-13.6-8.2-36.4.3c-6.2 0-12.2-2.4-16.6-6.8-4.4-4.4-6.9-10.3-6.9-16.6 0-6.4 2.6-12.4 7.2-16.9 4.7-4.5 10.8-6.8 17.2-6.5l41 2.2 45.4 24c3 1.6 4.2 5.3 2.7 8.3-1.4 3-5 4.3-8 3.1l-19.6-8 21.6 14.6c1.4.9 2.3 2.3 2.6 4 .3 1.6-.1 3.3-1 4.6-1.8 2.6-5.4 3.4-8.2 1.7l-23.8-14.4 4.3 4c1.8 1.7 2.5 4.2 1.9 6.5-.6 2.4-2.5 4.2-4.9 4.7-.6.3-1 .3-1.5.3zM348 533l14.3 8.6c.8.5 1.7.6 2.5.4 1.3-.3 2.3-1.2 2.6-2.5.3-1.3 0-2.6-1-3.5l-13.3-12.2c-.7-.7-.8-1.7-.2-2.5.6-.8 1.6-1 2.5-.5l34.3 20.6c1.4.8 3.1.4 4.1-.9.5-.7.7-1.5.5-2.3-.1-.8-.6-1.5-1.3-2l-30.4-20.5c-.8-.6-1.1-1.7-.6-2.6.5-.9 1.6-1.3 2.5-.9l29.3 12c1.6.6 3.3-.1 4.1-1.6.8-1.6.2-3.4-1.4-4.2l-44.8-23.6-40.3-2.2c-5.6-.2-10.9 1.8-14.9 5.6-4 3.9-6.3 9.1-6.3 14.7 0 5.4 2.1 10.6 6 14.4 3.9 3.8 8.9 5.9 14.4 5.9l37.4-.2zm5.7-9.4z"/><path d="M627.4 547.8H395.3l48.3-129.6c4.4-11.8 15.5-19.6 27.9-19.6h188.1c11.3 0 19.1 11.5 15.1 22.2l-47.3 127z" style="fill:#414042"/><path className="st4" d="M556.8 480.4c-1.4 7.4-8.4 12.2-15.7 10.8-7.3-1.4-12-8.6-10.6-15.9 1.4-7.4 8.4-12.2 15.7-10.8 7.3 1.4 12 8.5 10.6 15.9z"/><g id="XMLID_59_"><path id="XMLID_00000038373963381206545860000008852302927013021092_" className="st8" d="M91.4 421s-55.6-13.3-57.7-61.6c0 0 10.6 13.4 25.6 16.6 0 0 33.7 16.1 32.1 45z"/><path id="XMLID_00000003098843489140032690000011319313756003440013_" className="st8" d="M154.1 403.6s6.9 32.3-37.8 37.8c0 0-6.7-10 12-21.7 3-1.9 6.3-2.9 9.8-3.5 4.4-.7 11.5-3.4 16-12.6z"/><path id="XMLID_00000106850919188022794050000013948657022858651523_" className="st8" d="M118.6 343.9s-48.2 48.1-14.1 89.3c0 0 10.4-5.3 16.7-22.8 4.2-11.6 4.2-24.2 1-36.1-1.9-6.8-3.7-16.9-3.6-30.4z"/><path id="XMLID_00000096779385795548327710000000993821087689111453_" className="st8" d="M68.1 415.5s-18.7-9.1-32.8 16.3c0 0 25.3-11.4 26.4 3.1 0 0 6 18.2 21.6 21.1 0 0 9-33.7-15.2-40.5z"/><path className="st5" d="M88.9 492.7c-.8 0-1.5-.6-1.5-1.5-.6-12 4-23.3 8.4-34.3 3.2-7.8 6.5-15.9 7.8-24.2.7-4.6.9-9.4 1-14l.1-1.6c.6-18.7 2.4-37.6 5.2-56.1.1-.8.9-1.4 1.8-1.3.8.1 1.4.9 1.3 1.8-2.8 18.4-4.5 37.1-5.1 55.7l-.1 1.6c-.1 4.7-.3 9.6-1.1 14.4-1.4 8.6-4.7 16.9-8 24.8-4.5 11.1-8.8 21.6-8.2 32.9 0 1.1-.6 1.8-1.6 1.8.1 0 .1 0 0 0z"/><path className="st5" d="M99.3 485.4c-.8 0-1.4-.6-1.5-1.3-2.3-16.3 1.6-30.9 10.7-40 4.4-4.3 9.8-7.3 15.1-10.2 6.7-3.7 13.1-7.2 17.2-13.1.5-.7 1.4-.9 2.2-.4.7.5.9 1.4.4 2.2-4.5 6.5-11.5 10.3-18.2 14-5.1 2.8-10.4 5.7-14.4 9.7-8.4 8.4-12 22-9.8 37.3.1.8-.5 1.6-1.3 1.8-.2-.1-.3 0-.4 0zM92.7 474.7c-.6 0-1.1-.3-1.4-.9-3.7-7.4-3.4-16.1-2.7-22.9.2-1.7.4-3.3.6-5 .7-5.6 1.4-11.5.7-17.1-1-8.7-5.4-17.1-12.1-22.8-4.4-3.8-9.7-6.5-14.8-9.1-2-1-4-2-5.9-3.1-9.5-5.3-15.1-10.9-17.7-17.6-.3-.8.1-1.7.9-2 .8-.3 1.7.1 2 .9 2.3 6 7.5 11.1 16.4 16.1 1.9 1.1 3.9 2.1 5.8 3.1 5.3 2.7 10.8 5.5 15.4 9.6 7.2 6.3 12 15.3 13.1 24.8.7 6 0 12-.7 17.8-.2 1.6-.4 3.3-.6 4.9-.6 6.3-.9 14.5 2.4 21.2.4.8.1 1.7-.7 2.1h-.7z"/><path className="st5" d="M98.2 489.7c-.8 0-1.4-.6-1.5-1.4-.9-7.6-5.2-14.7-8.9-21L66 430.9c-.9-1.5-1.9-3.1-3.2-4.1-1.4-1.1-3.3-1.6-6.3-1.8-3.8-.2-7.7.2-11.4 1.1-.8.2-1.7-.3-1.9-1.1-.2-.8.3-1.7 1.1-1.9 4-1.1 8.2-1.5 12.4-1.2 2.4.1 5.5.5 8 2.4 1.8 1.4 3 3.3 4 5l21.8 36.4c3.9 6.5 8.3 13.9 9.3 22.2.1.8-.5 1.6-1.3 1.7-.2.1-.3.1-.3.1z"/><path id="XMLID_00000099630531962477392500000010914945100074516629_" className="st1" d="M118.5 547.7H81.2c-4.4 0-8-3.2-8.7-7.5l-9.9-68.7h72.2l-7.7 68.4c-.4 4.4-4.2 7.8-8.6 7.8z"/><path className="st3" d="m132.9 488.1 1.7-15.1H62.8l2.2 15.1z"/><path className="st5" d="M118.5 549.2H81.2c-5.1 0-9.5-3.8-10.2-8.8L60.9 470h75.7l-7.8 70.1c-.7 5.2-5.1 9.1-10.3 9.1zM64.4 473l9.6 66.9c.5 3.5 3.6 6.2 7.1 6.2h37.3c3.7 0 6.8-2.8 7.2-6.4l7.5-66.7H64.4z"/><path id="XMLID_61_" className="st1" d="M136.9 479.5H60.5c-1.5 0-2.6-1.2-2.6-2.6V471c0-1.5 1.2-2.6 2.6-2.6h76.4c1.5 0 2.6 1.2 2.6 2.6v5.8c0 1.5-1.2 2.7-2.6 2.7z"/><path className="st5" d="M137.2 481H88.3c-.9 0-1.5-.7-1.5-1.5s.7-1.5 1.5-1.5h48.9c.4 0 .7-.3.7-.7v-6.5c0-.4-.3-.7-.7-.7h-77c-.4 0-.7.3-.7.7v6.5c0 .4.3.7.7.7h11.2c.9 0 1.5.7 1.5 1.5s-.7 1.5-1.5 1.5H60.2c-2.1 0-3.8-1.7-3.8-3.8v-6.5c0-2.1 1.7-3.8 3.8-3.8h77c2.1 0 3.8 1.7 3.8 3.8v6.5c.1 2.1-1.7 3.8-3.8 3.8z"/></g><path className="st1" d="M141.5 128.6v-1.9h17.2v1.9l-4.5 42.7H146l-4.5-42.7zm.7 50.3h15.7v15.5h-15.7v-15.5z"/></svg>